<svg width="527" height="74" viewBox="0 0 527 74" fill="none" xmlns="http://www.w3.org/2000/svg">
<path d="M319.192 12.1839C323.505 12.2702 328.437 12.1737 332.822 12.1538C344.92 11.977 356.468 11.795 365.638 21.0558C374.623 30.1295 375.712 45.2998 370.2 56.473C368.633 59.6478 366.59 61.8766 364.123 64.3278C354.137 72.3794 345.854 71.8301 333.704 71.7769C328.476 71.754 323.039 71.8702 317.805 71.6366C317.159 61.1682 317.708 48.0535 317.571 37.352C317.499 31.6874 317.27 18.0999 317.803 12.952C318.323 12.2064 318.135 12.4194 319.192 12.1839ZM328.594 21.7988C328.265 27.6526 328.352 34.3725 328.383 40.3074C328.419 47.3906 328.329 55.0794 328.604 62.1456C333.249 62.2024 345.772 62.7432 349.485 61.2417C354.191 59.5453 358.269 56.2402 360.32 51.708C362.556 46.7644 362.96 38.9417 360.94 33.845C357.219 24.4501 349.513 21.7748 340.335 21.7114C336.421 21.713 332.508 21.7421 328.594 21.7988Z" fill="#01123A"/>
<path d="M336.46 31.0152C340.286 30.7529 345.069 31.6625 347.545 34.7628C351.085 39.1964 351.178 45.9504 346.716 49.7547C343.492 52.1566 340.142 52.8411 336.226 53.0449C336.097 49.4364 336.216 45.2764 336.203 41.6335C336.19 38.6311 336.125 33.9087 336.46 31.0152Z" fill="#8879FB"/>
<path d="M79.3 12.1782C84.5521 12.2804 89.7492 12.1541 95.1708 12.1431C105.945 12.1212 120.161 10.9514 125.817 22.5603C128.198 27.4458 128.045 33.8308 126.301 38.907C124.255 44.8645 119.936 47.0034 114.632 49.4829C118.776 55.7425 126.36 65.2731 129.647 71.6171L120.39 71.7792C119.389 71.8499 118.207 71.789 117.19 71.7602L108.783 59.2072C107.631 57.4746 104.643 52.8609 103.443 51.6749C102.02 50.2699 92.2991 51.0232 89.8184 51.098C89.7286 54.2253 89.9334 69.5582 89.0405 71.2011C87.331 72.1351 80.9334 71.7227 78.7705 71.6651L78.764 71.5639C78.2327 62.8034 78.5785 49.7809 78.5592 40.8416C78.5379 34.7969 78.5505 28.7523 78.5968 22.708C78.6104 20.9279 78.3277 13.2739 79.3 12.1782ZM89.7754 21.8341C89.5649 28.269 89.5207 34.7083 89.6427 41.1455C93.9453 41.2668 106.186 41.8084 109.66 40.9592C111.172 40.3475 112.247 39.9376 113.499 38.8464C118.686 34.3283 117.53 25.0268 110.836 22.6103C106.841 21.1683 100.952 21.5718 96.647 21.7017L89.7754 21.8341Z" fill="#01123A"/>
<path d="M26.5881 12.1494C29.9666 12.1376 33.7415 12.0425 37.0823 12.2773C38.0048 13.6174 39.4799 17.2817 40.1821 18.8997L45.6362 31.5505C50.667 43.1772 55.9621 54.7266 60.899 66.387C61.5135 67.8382 62.492 70.14 62.7171 71.6189C59.0526 71.6988 55.387 71.7343 51.7215 71.7256C49.9267 68.2825 47.6818 62.2001 46.1073 58.4048C43.1342 58.46 40.1605 58.4752 37.1868 58.4503C30.5779 58.5692 23.9669 58.5353 17.3593 58.3488C15.4849 62.1564 13.3278 67.7049 11.6391 71.6844C8.34701 71.8779 4.03095 71.7348 0.719727 71.6564C1.37658 69.29 3.44491 64.5034 4.4474 62.1652L10.0709 49.0464C13.5037 40.922 17.0045 32.8267 20.573 24.761C21.6961 22.2002 25.079 13.56 26.5881 12.1494ZM21.0806 49.0808C24.6384 49.3601 28.3556 49.3141 31.9337 49.3292L42.2964 49.3174C40.7878 45.9959 32.995 25.8985 31.4126 24.5724C30.4001 26.5159 29.0753 30.144 28.1554 32.3491C25.8422 37.9453 23.4839 43.5226 21.0806 49.0808Z" fill="#01123A"/>
<path d="M391.901 12.1681C406.169 12.2647 420.514 11.9128 434.745 12.3928C436.348 12.4469 435.811 19.8364 435.358 21.0054C434.118 21.9859 424.556 21.6623 422.5 21.6665C415.625 21.6788 408.752 21.731 401.88 21.8232C401.741 26.3846 401.607 31.9988 401.869 36.5044C410.291 37.0606 420.04 35.8558 428.57 36.631C429.043 36.6742 429.527 36.9928 429.88 37.3163C430.909 38.8377 430.562 45.9093 429.347 46.1115C423.756 47.0434 410.399 46.6516 405.186 46.6426L401.864 46.6758C401.576 51.2974 401.677 57.5093 401.862 62.1639C412.99 62.4157 424.958 61.7258 435.98 62.2982C436.312 64.955 436.217 68.9721 435.934 71.6135C433.672 71.8314 430.15 71.7301 427.757 71.7291L414.071 71.7438L399.538 71.7587C397.233 71.7564 393.034 71.8566 390.88 71.4891C390.826 58.6571 390.741 27.2335 390.993 12.7427C390.996 12.5159 391.613 12.2984 391.901 12.1681Z" fill="#01123A"/>
<path d="M213.465 12.1661C215.473 12.1242 221.62 11.8116 223.179 12.4566C224.057 14.1488 223.46 32.7933 223.78 36.4771C227.02 36.6449 230.935 36.5182 234.235 36.5131L253.191 36.4915C253.295 32.9945 252.965 14.3396 254.088 12.6146C255.708 11.7245 261.998 12.1847 264.095 12.2911C264.33 14.9369 264.232 18.6671 264.234 21.3855L264.232 36.4119V59.8575C264.232 62.7291 264.559 68.2205 263.941 71.1184C263.864 71.4912 263.398 71.5539 263.03 71.6649C260.918 71.7186 255.698 72.0166 253.968 71.3761C253.129 70.1857 253.277 49.6301 253.214 46.5696C243.688 46.3633 233.258 46.4738 223.704 46.5861C223.634 49.8855 223.999 70.2003 223.025 71.4082C221.159 72.0079 215.317 71.7183 213.078 71.67C213.044 71.419 213.018 71.1669 212.999 70.9144C212.761 68.1774 212.864 64.2261 212.862 61.4151L212.855 45.2698L212.847 25.3538C212.847 23.336 212.534 13.2706 213.465 12.1661Z" fill="#01123A"/>
<path d="M171.263 11.408C172.6 11.0024 177.08 11.4206 178.54 11.5812C184.617 12.2497 191.951 15.4743 195.721 20.4401C193.787 23.0817 191.511 25.4562 188.953 27.5023C184.89 24.2375 181.962 21.9163 176.595 21.1511C165.021 19.501 155.542 27.8674 154.097 39.0913C152.644 50.3801 159.654 61.1628 171.29 62.7384C177.613 63.5945 182.414 61.448 187.311 57.7192L189.405 55.8104C191.808 58.1925 194.225 60.0374 195.969 62.9797C195.896 63.0773 195.821 63.1734 195.745 63.268C191.333 68.699 183.73 71.7548 176.889 72.4748C168.345 73.3302 159.805 70.807 153.102 65.4471C147.155 60.632 143.36 53.2032 142.676 45.5889C141.014 27.0784 152.859 13.268 171.263 11.408Z" fill="#01123A"/>
<path d="M286.517 12.1794C288.439 12.1639 294.63 11.8488 296.019 12.7001C296.92 15.1971 296.397 42.6991 296.395 47.1563L296.408 63.067C296.418 65.2059 296.855 69.0842 296.212 70.9892C295.597 71.6629 295.875 71.4935 294.936 71.6783C291.846 71.7387 288.753 71.7281 285.66 71.6472C285.166 61.2415 285.542 49.6486 285.501 39.162C285.452 33.402 285.452 27.6421 285.501 21.8823C285.521 19.8155 285.14 13.2841 286.517 12.1794Z" fill="#01123A"/>
<path d="M455.031 11.6482C463.569 11.3306 462.758 11.4825 468.63 17.4479C474.44 23.3465 480.188 29.4913 486.16 35.2333C488.095 37.0938 490.372 39.073 491.744 41.3781C490.462 43.9563 489.32 45.1557 487.313 47.0977L485.411 48.7015C482.252 46.4674 475.392 38.9934 472.194 35.8286L459.987 23.7885C458.055 21.8539 456.171 19.9579 454.337 17.9264C452.108 15.4587 452.394 13.5446 455.031 11.6482Z" fill="#01123A"/>
<path d="M472.448 46.1346C474.265 46.3363 478.361 51.6073 479.488 53.1246C477.059 56.9494 472.15 61.0631 468.987 64.426C467.055 66.4782 461.628 72.241 459.21 73.0722C458.5 73.0802 457.787 73.0745 457.077 73.0555C452.399 72.9057 451.673 71.4357 451.877 67.1334C454.486 62.8188 468.174 49.8254 472.448 46.1346Z" fill="#8879FB"/>
<path d="M497.386 46.6814C499.548 47.4119 507.694 56.6688 510.141 58.786C511.607 60.8372 516.864 64.3034 517.855 66.3952C520.732 72.4663 514.749 72.8363 511.888 73.0167C510.859 72.9997 509.557 72.8301 508.785 72.0976C506.099 69.5484 503.425 66.9083 500.829 64.2626C497.68 61.0806 494.252 58.1023 491.368 54.6909C489.302 52.245 495.508 47.8967 497.386 46.6814Z" fill="#6453F9"/>
<path d="M507.187 11.9541C508.733 11.8741 513.097 17.6723 513.882 19.1641C512.469 21.2274 498.891 35.3486 497.219 36.5C494.453 34.8291 491.741 32.1872 489.875 29.5586C490.519 28.6586 491.298 27.7685 492.083 26.9892C497.101 22.0111 501.902 16.6416 507.187 11.9541Z" fill="#8879FB"/>
<path d="M518.866 1.03576C519.957 0.954052 521.087 0.948705 522.116 1.35317C523.557 1.91248 524.709 3.03094 525.312 4.45336C526.974 8.2882 524.789 11.9164 521.151 13.4703C519.664 13.6117 518.637 13.6047 517.255 12.9371C515.822 12.245 514.726 11.0061 514.217 9.49916C513.651 7.83028 513.764 6.00633 514.533 4.42029C515.526 2.40095 516.846 1.72399 518.866 1.03576Z" fill="#6453F9"/>
</svg>
